<mxfile host="app.diagrams.net" modified="2023-05-26T23:33:50.541Z" agent="Mozilla/5.0 (Windows NT 10.0; Win64; x64) AppleWebKit/537.36 (KHTML, like Gecko) Chrome/113.0.0.0 Safari/537.36" etag="oivoBKzoHmgmiXXwh3J7" version="21.3.2" type="device">
  <diagram name="PÃ¡gina-1" id="Xx89v_yJ4WQBElg_zgAx">
    <mxGraphModel dx="4743" dy="2120" grid="0" gridSize="10" guides="1" tooltips="1" connect="1" arrows="1" fold="1" page="0" pageScale="1" pageWidth="827" pageHeight="1169" math="0" shadow="0">
      <root>
        <mxCell id="0" />
        <mxCell id="1" parent="0" />
        <mxCell id="Xy0KWZWRTUFIR0xxrU-q-20" value="&lt;font style=&quot;font-size: 40px;&quot;&gt;&amp;nbsp; &amp;nbsp;VISTA&lt;br&gt;&lt;br&gt;&lt;br&gt;&lt;br&gt;&lt;br&gt;&lt;br&gt;&lt;br&gt;&lt;br&gt;&lt;br&gt;&lt;br&gt;&lt;br&gt;&lt;br&gt;&lt;br&gt;&lt;br&gt;&lt;br&gt;&lt;br&gt;&lt;br&gt;&lt;br&gt;&lt;br&gt;&lt;br&gt;&lt;br&gt;&lt;br&gt;&lt;/font&gt;" style="shape=folder;fontStyle=1;spacingTop=10;tabWidth=40;tabHeight=14;tabPosition=left;html=1;whiteSpace=wrap;align=left;" parent="1" vertex="1">
          <mxGeometry x="740" y="142" width="924" height="1127" as="geometry" />
        </mxCell>
        <mxCell id="Xy0KWZWRTUFIR0xxrU-q-18" value="&lt;div style=&quot;&quot;&gt;&lt;span style=&quot;font-size: 40px; background-color: initial;&quot;&gt;MODELO&amp;nbsp; &amp;nbsp; &amp;nbsp; &amp;nbsp; &amp;nbsp; &amp;nbsp; &amp;nbsp; &amp;nbsp; &amp;nbsp; &amp;nbsp; &amp;nbsp; &amp;nbsp; &amp;nbsp; &amp;nbsp; &amp;nbsp; &amp;nbsp; &amp;nbsp; &amp;nbsp; &amp;nbsp; &amp;nbsp; &amp;nbsp; &amp;nbsp; &amp;nbsp; &amp;nbsp; &amp;nbsp; &amp;nbsp; &amp;nbsp; &amp;nbsp; &amp;nbsp;&lt;/span&gt;&lt;/div&gt;&lt;div style=&quot;text-align: left;&quot;&gt;&lt;br&gt;&lt;/div&gt;&lt;br&gt;&lt;br&gt;&lt;br&gt;&lt;br&gt;&lt;br&gt;&lt;br&gt;&lt;br&gt;&lt;br&gt;&lt;br&gt;&lt;br&gt;&lt;br&gt;&lt;br&gt;&lt;br&gt;&lt;br&gt;&lt;br&gt;&lt;br&gt;&lt;br&gt;&lt;br&gt;&lt;br&gt;&lt;br&gt;&lt;br&gt;&lt;br&gt;&lt;br&gt;&lt;br&gt;&lt;br&gt;&lt;br&gt;&lt;br&gt;&lt;br&gt;&lt;br&gt;&lt;br&gt;&lt;br&gt;&lt;br&gt;" style="shape=folder;fontStyle=1;spacingTop=10;tabWidth=40;tabHeight=14;tabPosition=left;html=1;whiteSpace=wrap;" parent="1" vertex="1">
          <mxGeometry x="-429" y="1024" width="857" height="610" as="geometry" />
        </mxCell>
        <mxCell id="Xy0KWZWRTUFIR0xxrU-q-1" value="&lt;font style=&quot;font-size: 40px;&quot;&gt;APLICATIVO&lt;/font&gt;&lt;br&gt;&lt;br&gt;&lt;br&gt;&lt;br&gt;&lt;br&gt;&lt;br&gt;&lt;br&gt;&lt;br&gt;&lt;br&gt;&lt;br&gt;&lt;br&gt;" style="shape=folder;fontStyle=1;spacingTop=10;tabWidth=89;tabHeight=24;tabPosition=left;html=1;whiteSpace=wrap;aspect=fixed;" parent="1" vertex="1">
          <mxGeometry x="-188" y="-179" width="303.1" height="289" as="geometry" />
        </mxCell>
        <mxCell id="dB-MpKHptpt8ST8o80tG-5" value="&lt;p style=&quot;margin:0px;margin-top:4px;text-align:center;&quot;&gt;&lt;b&gt;Class Abstrac Vaca&lt;/b&gt;&lt;/p&gt;&lt;hr size=&quot;1&quot;&gt;&lt;p style=&quot;margin:0px;margin-left:4px;&quot;&gt;- peso adulto : double&lt;/p&gt;&lt;p style=&quot;margin:0px;margin-left:4px;&quot;&gt;- peso_ternero : double&lt;/p&gt;&lt;p style=&quot;margin:0px;margin-left:4px;&quot;&gt;- canti_adulto : double&lt;/p&gt;&lt;p style=&quot;margin:0px;margin-left:4px;&quot;&gt;- canti_ternero : double&lt;/p&gt;&lt;p style=&quot;margin:0px;margin-left:4px;&quot;&gt;- peso_sacrificado : double&lt;/p&gt;&lt;hr size=&quot;1&quot;&gt;&lt;p style=&quot;margin:0px;margin-left:4px;&quot;&gt;+ Vaca(peso_adulto, peso_ternero, cantidad_adulto,cantidad_ternero) : Constructor 1&lt;/p&gt;&lt;p style=&quot;margin:0px;margin-left:4px;&quot;&gt;+Vaca (peso_sacriificado) : Constructor 2&amp;nbsp;&lt;/p&gt;&lt;p style=&quot;margin:0px;margin-left:4px;&quot;&gt;+ getter()&lt;/p&gt;&lt;p style=&quot;margin:0px;margin-left:4px;&quot;&gt;+ setter()&lt;/p&gt;&lt;p style=&quot;margin:0px;margin-left:4px;&quot;&gt;+ Abstract AdultoConsumo() : double&lt;/p&gt;&lt;p style=&quot;margin:0px;margin-left:4px;&quot;&gt;+ Abstract TerneroConsumo() : double&amp;nbsp;&lt;/p&gt;&lt;p style=&quot;margin:0px;margin-left:4px;&quot;&gt;&lt;br&gt;&lt;/p&gt;" style="verticalAlign=top;align=left;overflow=fill;fontSize=12;fontFamily=Helvetica;html=1;whiteSpace=wrap;" parent="1" vertex="1">
          <mxGeometry x="-116" y="1085" width="275" height="227" as="geometry" />
        </mxCell>
        <mxCell id="dB-MpKHptpt8ST8o80tG-6" value="&lt;p style=&quot;margin:0px;margin-top:4px;text-align:center;&quot;&gt;&lt;b&gt;Alimento&lt;/b&gt;&lt;/p&gt;&lt;hr size=&quot;1&quot;&gt;&lt;p style=&quot;margin:0px;margin-left:4px;&quot;&gt;- cantidad_saco : double&lt;/p&gt;&lt;p style=&quot;margin:0px;margin-left:4px;&quot;&gt;&lt;span style=&quot;background-color: initial;&quot;&gt;- peso_saco : double&lt;/span&gt;&lt;/p&gt;&lt;hr size=&quot;1&quot;&gt;&lt;p style=&quot;margin:0px;margin-left:4px;&quot;&gt;+Alimento(Argumentos) : Constructor&lt;/p&gt;&lt;p style=&quot;margin:0px;margin-left:4px;&quot;&gt;+ getter() : return double&lt;/p&gt;&lt;p style=&quot;margin:0px;margin-left:4px;&quot;&gt;+ setter() : void&lt;/p&gt;&lt;p style=&quot;margin:0px;margin-left:4px;&quot;&gt;+ AdultoConsumo() : return double&lt;/p&gt;&lt;p style=&quot;margin:0px;margin-left:4px;&quot;&gt;+ TerneroConsumo() : return double&lt;/p&gt;&lt;p style=&quot;margin:0px;margin-left:4px;&quot;&gt;+ ConsumoTotal() : return double&lt;/p&gt;&lt;p style=&quot;margin:0px;margin-left:4px;&quot;&gt;+ AlimentoSaco() : return double&amp;nbsp;&lt;/p&gt;&lt;p style=&quot;margin:0px;margin-left:4px;&quot;&gt;+ DiasAliment() : return int&lt;/p&gt;&lt;p style=&quot;margin:0px;margin-left:4px;&quot;&gt;+AlimentoRestante() : return double&lt;/p&gt;&lt;p style=&quot;margin:0px;margin-left:4px;&quot;&gt;+toString() : return String&lt;/p&gt;" style="verticalAlign=top;align=left;overflow=fill;fontSize=12;fontFamily=Helvetica;html=1;whiteSpace=wrap;" parent="1" vertex="1">
          <mxGeometry x="-355" y="1372" width="215" height="227" as="geometry" />
        </mxCell>
        <mxCell id="dB-MpKHptpt8ST8o80tG-7" value="&lt;p style=&quot;margin:0px;margin-top:4px;text-align:center;&quot;&gt;&lt;b&gt;Forraje&lt;/b&gt;&lt;/p&gt;&lt;hr size=&quot;1&quot;&gt;&lt;p style=&quot;margin:0px;margin-left:4px;&quot;&gt;- peso1 : double&lt;/p&gt;&lt;p style=&quot;margin:0px;margin-left:4px;&quot;&gt;- peso2 : double&lt;/p&gt;&lt;p style=&quot;margin:0px;margin-left:4px;&quot;&gt;- hectaria :&amp;nbsp; double&lt;/p&gt;&lt;hr size=&quot;1&quot;&gt;&lt;p style=&quot;margin:0px;margin-left:4px;&quot;&gt;+ Forraje(Argumentos) : Constructor&lt;/p&gt;&lt;p style=&quot;margin:0px;margin-left:4px;&quot;&gt;+ getter() : return double&lt;/p&gt;&lt;p style=&quot;margin:0px;margin-left:4px;&quot;&gt;+ setter() : void&lt;/p&gt;&lt;p style=&quot;margin:0px;margin-left:4px;&quot;&gt;+ PesoTotalForraje() :&amp;nbsp; return double&lt;/p&gt;&lt;p style=&quot;margin:0px;margin-left:4px;&quot;&gt;+ AdultoConsumo() : return double&lt;/p&gt;&lt;p style=&quot;margin:0px;margin-left:4px;&quot;&gt;+ TerneroConsumo() : return double&lt;/p&gt;&lt;p style=&quot;margin:0px;margin-left:4px;&quot;&gt;+ TotalConsumo() : retunr double&lt;/p&gt;&lt;p style=&quot;margin:0px;margin-left:4px;&quot;&gt;+ ForrajeTotal() : return double&lt;/p&gt;&lt;p style=&quot;margin:0px;margin-left:4px;&quot;&gt;+ DiasConsumo() :&amp;nbsp; return int&lt;/p&gt;&lt;p style=&quot;margin:0px;margin-left:4px;&quot;&gt;+ Sobra() : return double&lt;/p&gt;&lt;p style=&quot;margin:0px;margin-left:4px;&quot;&gt;+ toString() : return String&lt;/p&gt;" style="verticalAlign=top;align=left;overflow=fill;fontSize=12;fontFamily=Helvetica;html=1;whiteSpace=wrap;" parent="1" vertex="1">
          <mxGeometry x="-88" y="1372" width="219" height="252" as="geometry" />
        </mxCell>
        <mxCell id="dB-MpKHptpt8ST8o80tG-8" value="&lt;p style=&quot;margin:0px;margin-top:4px;text-align:center;&quot;&gt;&lt;b&gt;Ventas&lt;/b&gt;&lt;/p&gt;&lt;hr size=&quot;1&quot;&gt;&lt;p style=&quot;margin:0px;margin-left:4px;&quot;&gt;- sacrificio : int&lt;/p&gt;&lt;p style=&quot;margin:0px;margin-left:4px;&quot;&gt;- pesototal : double&lt;br&gt;&lt;/p&gt;&lt;hr size=&quot;1&quot;&gt;&lt;p style=&quot;margin:0px;margin-left:4px;&quot;&gt;+ Ventas(Argumnetos) : Contructor&lt;/p&gt;&lt;p style=&quot;margin:0px;margin-left:4px;&quot;&gt;+ getter() : retun&lt;/p&gt;&lt;p style=&quot;margin:0px;margin-left:4px;&quot;&gt;+ setter() : void&lt;/p&gt;&lt;p style=&quot;margin:0px;margin-left:4px;&quot;&gt;+ Calculo() : retunr double&lt;/p&gt;&lt;p style=&quot;margin:0px;margin-left:4px;&quot;&gt;+ toString() : retunr String&lt;/p&gt;" style="verticalAlign=top;align=left;overflow=fill;fontSize=12;fontFamily=Helvetica;html=1;whiteSpace=wrap;" parent="1" vertex="1">
          <mxGeometry x="180" y="1372" width="165" height="161" as="geometry" />
        </mxCell>
        <mxCell id="dB-MpKHptpt8ST8o80tG-9" value="Extends" style="endArrow=block;endSize=16;endFill=0;html=1;rounded=0;fontSize=12;exitX=0.5;exitY=0;exitDx=0;exitDy=0;entryX=0;entryY=0.5;entryDx=0;entryDy=0;edgeStyle=orthogonalEdgeStyle;" parent="1" source="dB-MpKHptpt8ST8o80tG-6" target="dB-MpKHptpt8ST8o80tG-5" edge="1">
          <mxGeometry width="160" relative="1" as="geometry">
            <mxPoint x="-280" y="1407" as="sourcePoint" />
            <mxPoint x="-115" y="1390" as="targetPoint" />
          </mxGeometry>
        </mxCell>
        <mxCell id="dB-MpKHptpt8ST8o80tG-11" value="Extends" style="endArrow=block;endSize=16;endFill=0;html=1;rounded=0;fontSize=12;curved=1;exitX=0.5;exitY=0;exitDx=0;exitDy=0;entryX=0.5;entryY=1;entryDx=0;entryDy=0;" parent="1" source="dB-MpKHptpt8ST8o80tG-7" target="dB-MpKHptpt8ST8o80tG-5" edge="1">
          <mxGeometry width="160" relative="1" as="geometry">
            <mxPoint x="-30" y="1420" as="sourcePoint" />
            <mxPoint x="115" y="1398" as="targetPoint" />
          </mxGeometry>
        </mxCell>
        <mxCell id="dB-MpKHptpt8ST8o80tG-20" value="Extends" style="endArrow=block;endSize=16;endFill=0;html=1;rounded=0;fontSize=12;exitX=0.5;exitY=0;exitDx=0;exitDy=0;entryX=1;entryY=0.5;entryDx=0;entryDy=0;edgeStyle=orthogonalEdgeStyle;" parent="1" source="dB-MpKHptpt8ST8o80tG-8" target="dB-MpKHptpt8ST8o80tG-5" edge="1">
          <mxGeometry width="160" relative="1" as="geometry">
            <mxPoint x="118" y="1320" as="sourcePoint" />
            <mxPoint x="278" y="1320" as="targetPoint" />
          </mxGeometry>
        </mxCell>
        <mxCell id="Xy0KWZWRTUFIR0xxrU-q-2" value="&lt;p style=&quot;margin:0px;margin-top:4px;text-align:center;&quot;&gt;&lt;b&gt;Class MyRancher&lt;/b&gt;&lt;/p&gt;&lt;hr size=&quot;1&quot;&gt;&lt;p style=&quot;margin:0px;margin-left:4px;&quot;&gt;- lo : Objeto Login ()&lt;/p&gt;&lt;p style=&quot;margin:0px;margin-left:4px;&quot;&gt;- me : Objeto Menu_Principal()&lt;/p&gt;&lt;p style=&quot;margin:0px;margin-left:4px;&quot;&gt;+ login : Objeto ControladorLogin(lo,me)&lt;/p&gt;&lt;hr size=&quot;1&quot;&gt;&lt;p style=&quot;margin:0px;margin-left:4px;&quot;&gt;- main( Satring[] args) : Inicializador&lt;/p&gt;&lt;p style=&quot;margin:0px;margin-left:4px;&quot;&gt;- login.Iniciar()&lt;/p&gt;" style="verticalAlign=top;align=left;overflow=fill;fontSize=12;fontFamily=Helvetica;html=1;whiteSpace=wrap;" parent="1" vertex="1">
          <mxGeometry x="-155.81" y="-69" width="245" height="121" as="geometry" />
        </mxCell>
        <mxCell id="Xy0KWZWRTUFIR0xxrU-q-3" value="&lt;div style=&quot;text-align: left;&quot;&gt;&lt;font style=&quot;background-color: initial; font-size: 40px;&quot;&gt;CONTROLADOR&lt;/font&gt;&lt;span style=&quot;background-color: initial;&quot;&gt; &amp;nbsp; &amp;nbsp; &amp;nbsp; &amp;nbsp; &amp;nbsp; &amp;nbsp; &amp;nbsp; &amp;nbsp; &amp;nbsp; &amp;nbsp; &amp;nbsp; &amp;nbsp; &amp;nbsp; &amp;nbsp; &amp;nbsp; &amp;nbsp; &amp;nbsp; &amp;nbsp; &amp;nbsp; &amp;nbsp; &amp;nbsp; &amp;nbsp; &amp;nbsp; &amp;nbsp; &amp;nbsp; &amp;nbsp; &amp;nbsp; &amp;nbsp; &amp;nbsp; &amp;nbsp; &amp;nbsp;&lt;/span&gt;&lt;span style=&quot;background-color: initial; white-space: pre;&quot;&gt; &lt;/span&gt;&lt;span style=&quot;background-color: initial; white-space: pre;&quot;&gt; &lt;/span&gt;&lt;span style=&quot;background-color: initial; white-space: pre;&quot;&gt; &lt;/span&gt;&lt;span style=&quot;background-color: initial; white-space: pre;&quot;&gt; &lt;/span&gt;&lt;span style=&quot;background-color: initial; white-space: pre;&quot;&gt; &lt;/span&gt;&lt;span style=&quot;background-color: initial; white-space: pre;&quot;&gt; &lt;/span&gt;&lt;span style=&quot;background-color: initial; white-space: pre;&quot;&gt; &lt;/span&gt;&lt;span style=&quot;background-color: initial; white-space: pre;&quot;&gt; &lt;/span&gt;&lt;span style=&quot;background-color: initial; white-space: pre;&quot;&gt; &lt;/span&gt;&lt;span style=&quot;background-color: initial; white-space: pre;&quot;&gt; &lt;/span&gt;&lt;span style=&quot;background-color: initial; white-space: pre;&quot;&gt; &lt;/span&gt;&lt;span style=&quot;background-color: initial; white-space: pre;&quot;&gt; &lt;/span&gt;&lt;span style=&quot;background-color: initial; white-space: pre;&quot;&gt; &lt;/span&gt;&lt;span style=&quot;background-color: initial; white-space: pre;&quot;&gt; &lt;/span&gt;&lt;span style=&quot;background-color: initial; white-space: pre;&quot;&gt; &lt;/span&gt;&lt;span style=&quot;background-color: initial; white-space: pre;&quot;&gt; &lt;/span&gt;&lt;span style=&quot;background-color: initial; white-space: pre;&quot;&gt; &lt;/span&gt;&lt;span style=&quot;background-color: initial; white-space: pre;&quot;&gt; &lt;/span&gt;&lt;span style=&quot;background-color: initial; white-space: pre;&quot;&gt; &lt;/span&gt;&lt;span style=&quot;background-color: initial; white-space: pre;&quot;&gt; &lt;/span&gt;&lt;span style=&quot;background-color: initial; white-space: pre;&quot;&gt; &lt;/span&gt;&lt;span style=&quot;background-color: initial; white-space: pre;&quot;&gt; &lt;/span&gt;&lt;span style=&quot;background-color: initial; white-space: pre;&quot;&gt; &lt;/span&gt;&lt;span style=&quot;background-color: initial; white-space: pre;&quot;&gt; &lt;/span&gt;&lt;span style=&quot;background-color: initial; white-space: pre;&quot;&gt; &lt;/span&gt;&lt;span style=&quot;background-color: initial; white-space: pre;&quot;&gt; &lt;/span&gt;&lt;span style=&quot;background-color: initial; white-space: pre;&quot;&gt; &lt;/span&gt;&lt;/div&gt;&lt;br&gt;&lt;br&gt;&lt;br&gt;&lt;br&gt;&lt;br&gt;&lt;br&gt;&lt;br&gt;&lt;br&gt;&lt;br&gt;&lt;br&gt;&lt;br&gt;&lt;br&gt;&lt;br&gt;&lt;br&gt;&lt;br&gt;&lt;br&gt;&lt;br&gt;&lt;br&gt;&lt;br&gt;&lt;br&gt;&lt;br&gt;&lt;br&gt;&lt;br&gt;&lt;br&gt;&lt;br&gt;&lt;br&gt;&lt;br&gt;&lt;br&gt;&lt;br&gt;&lt;br&gt;&lt;br&gt;&lt;br&gt;&lt;br&gt;&lt;br&gt;&lt;br&gt;&lt;br&gt;&lt;br&gt;&lt;br&gt;&lt;br&gt;&lt;br&gt;" style="shape=folder;fontStyle=1;spacingTop=10;tabWidth=127;tabHeight=32;tabPosition=left;html=1;whiteSpace=wrap;" parent="1" vertex="1">
          <mxGeometry x="-640" y="142" width="1247" height="763" as="geometry" />
        </mxCell>
        <mxCell id="Xy0KWZWRTUFIR0xxrU-q-4" value="&lt;p style=&quot;margin:0px;margin-top:4px;text-align:center;&quot;&gt;&lt;b&gt;Class ControladorLogin&lt;/b&gt;&lt;/p&gt;&lt;hr size=&quot;1&quot;&gt;&lt;p style=&quot;margin:0px;margin-left:4px;&quot;&gt;- log1 : Objeto Login&lt;/p&gt;&lt;p style=&quot;margin:0px;margin-left:4px;&quot;&gt;- menu1 : Objeto Menu_principal&lt;/p&gt;&lt;hr size=&quot;1&quot;&gt;&lt;p style=&quot;margin:0px;margin-left:4px;&quot;&gt;+ ControladorLogin(lo, menu1) : Constructor&lt;/p&gt;&lt;p style=&quot;margin:0px;margin-left:4px;&quot;&gt;+ Iniciar() : void&lt;/p&gt;&lt;p style=&quot;margin:0px;margin-left:4px;&quot;&gt;+ actionPerformed(ActionEvent e) : void&lt;/p&gt;" style="verticalAlign=top;align=left;overflow=fill;fontSize=12;fontFamily=Helvetica;html=1;whiteSpace=wrap;" parent="1" vertex="1">
          <mxGeometry x="-164" y="288" width="274" height="132" as="geometry" />
        </mxCell>
        <mxCell id="Xy0KWZWRTUFIR0xxrU-q-5" value="&lt;p style=&quot;margin:0px;margin-top:4px;text-align:center;&quot;&gt;&lt;b&gt;Class ControlMenuPrincipal&lt;/b&gt;&lt;/p&gt;&lt;hr size=&quot;1&quot;&gt;&lt;p style=&quot;margin:0px;margin-left:4px;&quot;&gt;- menupri1 : Objeto Menu_Principal&lt;/p&gt;&lt;p style=&quot;margin:0px;margin-left:4px;&quot;&gt;- cap1 : Objeto Capacitacion&lt;/p&gt;&lt;p style=&quot;margin:0px;margin-left:4px;&quot;&gt;- calali : Objeto Calculo_Alimento&lt;/p&gt;&lt;p style=&quot;margin:0px;margin-left:4px;&quot;&gt;- calfor : Objeto Calculo_Forraje&lt;/p&gt;&lt;p style=&quot;margin:0px;margin-left:4px;&quot;&gt;- cave : Objeto Calculo_Ventas&lt;/p&gt;&lt;hr size=&quot;1&quot;&gt;&lt;p style=&quot;margin:0px;margin-left:4px;&quot;&gt;+ ControlMenuPrincipal(menupri) : Constructor&lt;/p&gt;&lt;p style=&quot;margin:0px;margin-left:4px;&quot;&gt;+ Mostrar() : void&lt;/p&gt;&lt;p style=&quot;margin:0px;margin-left:4px;&quot;&gt;+ actionPerformed(ActionEvent e) : void&lt;br&gt;&lt;/p&gt;" style="verticalAlign=top;align=left;overflow=fill;fontSize=12;fontFamily=Helvetica;html=1;whiteSpace=wrap;" parent="1" vertex="1">
          <mxGeometry x="-164" y="469" width="275" height="171" as="geometry" />
        </mxCell>
        <mxCell id="Xy0KWZWRTUFIR0xxrU-q-6" value="&lt;p style=&quot;margin:0px;margin-top:4px;text-align:center;&quot;&gt;&lt;b&gt;Class ControlCapacitacion&lt;/b&gt;&lt;/p&gt;&lt;hr size=&quot;1&quot;&gt;&lt;p style=&quot;margin:0px;margin-left:4px;&quot;&gt;&lt;span style=&quot;background-color: initial;&quot;&gt;- men : Objeto Menu_principal&lt;/span&gt;&lt;br&gt;&lt;/p&gt;&lt;p style=&quot;margin:0px;margin-left:4px;&quot;&gt;- ca2 : Objeto Capacitacion&lt;span style=&quot;background-color: initial;&quot;&gt;&lt;br&gt;&lt;/span&gt;&lt;/p&gt;&lt;hr size=&quot;1&quot;&gt;&lt;p style=&quot;margin:0px;margin-left:4px;&quot;&gt;+ ControlCapacitacion(men1,ca1) : Constructor&lt;/p&gt;&lt;p style=&quot;margin:0px;margin-left:4px;&quot;&gt;+ Mostrar() : void&lt;/p&gt;&lt;p style=&quot;margin:0px;margin-left:4px;&quot;&gt;+ actionPerformed(ActionEvent e) : void&lt;/p&gt;" style="verticalAlign=top;align=left;overflow=fill;fontSize=12;fontFamily=Helvetica;html=1;whiteSpace=wrap;" parent="1" vertex="1">
          <mxGeometry x="-620" y="719" width="274" height="132" as="geometry" />
        </mxCell>
        <mxCell id="Xy0KWZWRTUFIR0xxrU-q-7" value="&lt;p style=&quot;margin:0px;margin-top:4px;text-align:center;&quot;&gt;&lt;b&gt;Class ControlForraje&lt;/b&gt;&lt;/p&gt;&lt;hr size=&quot;1&quot;&gt;&lt;p style=&quot;margin:0px;margin-left:4px;&quot;&gt;&lt;span style=&quot;background-color: initial;&quot;&gt;- menu1 : Objeto Menu_principal&lt;/span&gt;&lt;br&gt;&lt;/p&gt;&lt;p style=&quot;margin:0px;margin-left:4px;&quot;&gt;- calfor4 : Objeto Calculo_Forraje&lt;span style=&quot;background-color: initial;&quot;&gt;&lt;br&gt;&lt;/span&gt;&lt;/p&gt;&lt;p style=&quot;margin:0px;margin-left:4px;&quot;&gt;- forra : Objeto Forraje&lt;/p&gt;&lt;hr size=&quot;1&quot;&gt;&lt;p style=&quot;margin:0px;margin-left:4px;&quot;&gt;+ ControlForraje(menu,calfor) : Constructor&lt;/p&gt;&lt;p style=&quot;margin:0px;margin-left:4px;&quot;&gt;+ Mostrar() : void&lt;/p&gt;&lt;p style=&quot;margin:0px;margin-left:4px;&quot;&gt;+ actionPerformed(ActionEvent e) : void&lt;/p&gt;" style="verticalAlign=top;align=left;overflow=fill;fontSize=12;fontFamily=Helvetica;html=1;whiteSpace=wrap;" parent="1" vertex="1">
          <mxGeometry x="-11" y="719" width="274" height="132" as="geometry" />
        </mxCell>
        <mxCell id="Xy0KWZWRTUFIR0xxrU-q-8" value="&lt;p style=&quot;margin:0px;margin-top:4px;text-align:center;&quot;&gt;&lt;b&gt;Class ControlAlimento&lt;/b&gt;&lt;/p&gt;&lt;hr size=&quot;1&quot;&gt;&lt;p style=&quot;margin:0px;margin-left:4px;&quot;&gt;&lt;span style=&quot;background-color: initial;&quot;&gt;- menu1 : Objeto Menu_principal&lt;/span&gt;&lt;br&gt;&lt;/p&gt;&lt;p style=&quot;margin:0px;margin-left:4px;&quot;&gt;- calali3 : Objeto Calculo_Alimento&lt;span style=&quot;background-color: initial;&quot;&gt;&lt;br&gt;&lt;/span&gt;&lt;/p&gt;&lt;p style=&quot;margin:0px;margin-left:4px;&quot;&gt;- ali : Objeto Alimento&lt;/p&gt;&lt;hr size=&quot;1&quot;&gt;&lt;p style=&quot;margin:0px;margin-left:4px;&quot;&gt;+ ControlForraje(menu1,calali) : Constructor&lt;/p&gt;&lt;p style=&quot;margin:0px;margin-left:4px;&quot;&gt;+ Mostrar() : void&lt;/p&gt;&lt;p style=&quot;margin:0px;margin-left:4px;&quot;&gt;+ actionPerformed(ActionEvent e) : void&lt;/p&gt;" style="verticalAlign=top;align=left;overflow=fill;fontSize=12;fontFamily=Helvetica;html=1;whiteSpace=wrap;" parent="1" vertex="1">
          <mxGeometry x="-314" y="719" width="274" height="146" as="geometry" />
        </mxCell>
        <mxCell id="Xy0KWZWRTUFIR0xxrU-q-9" value="&lt;p style=&quot;margin:0px;margin-top:4px;text-align:center;&quot;&gt;&lt;b&gt;Class ControlVenta&lt;/b&gt;&lt;/p&gt;&lt;hr size=&quot;1&quot;&gt;&lt;p style=&quot;margin:0px;margin-left:4px;&quot;&gt;&lt;span style=&quot;background-color: initial;&quot;&gt;- menupr : Objeto Menu_principal&lt;/span&gt;&lt;br&gt;&lt;/p&gt;&lt;p style=&quot;margin:0px;margin-left:4px;&quot;&gt;- vent4 : Objeto Calculo_Ventas&lt;span style=&quot;background-color: initial;&quot;&gt;&lt;br&gt;&lt;/span&gt;&lt;/p&gt;&lt;p style=&quot;margin:0px;margin-left:4px;&quot;&gt;- venta : Objeto Ventas&lt;/p&gt;&lt;p style=&quot;margin:0px;margin-left:4px;&quot;&gt;+ data : ArrayList&amp;lt;String&amp;gt;&lt;/p&gt;&lt;p style=&quot;margin:0px;margin-left:4px;&quot;&gt;+ peso : double&lt;/p&gt;&lt;hr size=&quot;1&quot;&gt;&lt;p style=&quot;margin:0px;margin-left:4px;&quot;&gt;+ ControlForraje(menupr1,ven) : Constructor&lt;/p&gt;&lt;p style=&quot;margin:0px;margin-left:4px;&quot;&gt;+ Mostrar() : void&lt;/p&gt;&lt;p style=&quot;margin:0px;margin-left:4px;&quot;&gt;+ actionPerformed(ActionEvent e) : void&lt;/p&gt;" style="verticalAlign=top;align=left;overflow=fill;fontSize=12;fontFamily=Helvetica;html=1;whiteSpace=wrap;" parent="1" vertex="1">
          <mxGeometry x="301" y="719" width="274" height="169" as="geometry" />
        </mxCell>
        <mxCell id="Xy0KWZWRTUFIR0xxrU-q-11" value="Use" style="endArrow=open;endSize=12;dashed=1;html=1;rounded=0;entryX=0.5;entryY=0;entryDx=0;entryDy=0;exitX=0;exitY=0.5;exitDx=0;exitDy=0;edgeStyle=orthogonalEdgeStyle;" parent="1" source="Xy0KWZWRTUFIR0xxrU-q-5" target="Xy0KWZWRTUFIR0xxrU-q-6" edge="1">
          <mxGeometry x="0.2218" y="-12" width="160" relative="1" as="geometry">
            <mxPoint x="-522" y="600" as="sourcePoint" />
            <mxPoint x="-362" y="600" as="targetPoint" />
            <mxPoint as="offset" />
          </mxGeometry>
        </mxCell>
        <mxCell id="Xy0KWZWRTUFIR0xxrU-q-12" value="Use" style="endArrow=open;endSize=12;dashed=1;html=1;rounded=0;entryX=0.5;entryY=0;entryDx=0;entryDy=0;exitX=0.5;exitY=1;exitDx=0;exitDy=0;edgeStyle=orthogonalEdgeStyle;" parent="1" source="Xy0KWZWRTUFIR0xxrU-q-5" target="Xy0KWZWRTUFIR0xxrU-q-8" edge="1">
          <mxGeometry x="-0.0056" y="-20" width="160" relative="1" as="geometry">
            <mxPoint x="-351" y="673" as="sourcePoint" />
            <mxPoint x="-191" y="673" as="targetPoint" />
            <mxPoint as="offset" />
          </mxGeometry>
        </mxCell>
        <mxCell id="Xy0KWZWRTUFIR0xxrU-q-13" value="Use" style="endArrow=open;endSize=12;dashed=1;html=1;rounded=0;entryX=0.5;entryY=0;entryDx=0;entryDy=0;exitX=0.5;exitY=1;exitDx=0;exitDy=0;edgeStyle=orthogonalEdgeStyle;" parent="1" source="Xy0KWZWRTUFIR0xxrU-q-5" target="Xy0KWZWRTUFIR0xxrU-q-7" edge="1">
          <mxGeometry x="-0.0148" y="18" width="160" relative="1" as="geometry">
            <mxPoint x="184" y="571" as="sourcePoint" />
            <mxPoint x="344" y="571" as="targetPoint" />
            <mxPoint as="offset" />
          </mxGeometry>
        </mxCell>
        <mxCell id="Xy0KWZWRTUFIR0xxrU-q-14" value="Use" style="endArrow=open;endSize=12;dashed=1;html=1;rounded=0;entryX=0.5;entryY=0;entryDx=0;entryDy=0;exitX=1;exitY=0.5;exitDx=0;exitDy=0;edgeStyle=orthogonalEdgeStyle;" parent="1" source="Xy0KWZWRTUFIR0xxrU-q-5" target="Xy0KWZWRTUFIR0xxrU-q-9" edge="1">
          <mxGeometry x="0.2982" y="10" width="160" relative="1" as="geometry">
            <mxPoint x="248" y="546" as="sourcePoint" />
            <mxPoint x="408" y="546" as="targetPoint" />
            <mxPoint as="offset" />
          </mxGeometry>
        </mxCell>
        <mxCell id="Xy0KWZWRTUFIR0xxrU-q-16" value="Use" style="endArrow=open;endSize=12;dashed=1;html=1;rounded=0;entryX=0.5;entryY=0;entryDx=0;entryDy=0;exitX=0.5;exitY=1;exitDx=0;exitDy=0;" parent="1" source="Xy0KWZWRTUFIR0xxrU-q-4" target="Xy0KWZWRTUFIR0xxrU-q-5" edge="1">
          <mxGeometry width="160" relative="1" as="geometry">
            <mxPoint x="-297" y="392" as="sourcePoint" />
            <mxPoint x="-137" y="392" as="targetPoint" />
          </mxGeometry>
        </mxCell>
        <mxCell id="Xy0KWZWRTUFIR0xxrU-q-17" value="Use" style="endArrow=open;endSize=12;dashed=1;html=1;rounded=0;entryX=0.487;entryY=0.043;entryDx=0;entryDy=0;entryPerimeter=0;" parent="1" target="Xy0KWZWRTUFIR0xxrU-q-3" edge="1">
          <mxGeometry x="0.0331" width="160" relative="1" as="geometry">
            <mxPoint x="-33" y="112" as="sourcePoint" />
            <mxPoint x="341" y="77" as="targetPoint" />
            <mxPoint as="offset" />
          </mxGeometry>
        </mxCell>
        <mxCell id="Xy0KWZWRTUFIR0xxrU-q-19" value="Use" style="endArrow=open;endSize=12;dashed=1;html=1;rounded=0;exitX=0.5;exitY=1;exitDx=0;exitDy=0;exitPerimeter=0;entryX=0.483;entryY=0.029;entryDx=0;entryDy=0;entryPerimeter=0;" parent="1" source="Xy0KWZWRTUFIR0xxrU-q-3" target="Xy0KWZWRTUFIR0xxrU-q-18" edge="1">
          <mxGeometry width="160" relative="1" as="geometry">
            <mxPoint x="-92" y="970" as="sourcePoint" />
            <mxPoint x="68" y="970" as="targetPoint" />
          </mxGeometry>
        </mxCell>
        <mxCell id="Xy0KWZWRTUFIR0xxrU-q-21" value="&lt;p style=&quot;margin:0px;margin-top:4px;text-align:center;&quot;&gt;&lt;b&gt;Class JFrame Login&lt;/b&gt;&lt;/p&gt;&lt;hr size=&quot;1&quot;&gt;&lt;p style=&quot;margin:0px;margin-left:4px;&quot;&gt;+ ContraseÃ±a : JspasswordField&lt;/p&gt;&lt;p style=&quot;margin:0px;margin-left:4px;&quot;&gt;+ Usuario : JTextField&lt;/p&gt;&lt;p style=&quot;margin:0px;margin-left:4px;&quot;&gt;+ Ingresar : Jbutton&lt;/p&gt;&lt;p style=&quot;margin:0px;margin-left:4px;&quot;&gt;- JFrame1 : Jframe&lt;/p&gt;&lt;p style=&quot;margin:0px;margin-left:4px;&quot;&gt;- jLabel1 : JLabel&lt;/p&gt;&amp;nbsp;- jLabel2 : JLabel&lt;br&gt;&amp;nbsp;- jLabel3 : JLabel&lt;br&gt;&amp;nbsp;- jLabel4 : JLabel&lt;br&gt;&amp;nbsp;- jLabel5 : JLabel&lt;br&gt;&amp;nbsp;- jLabel6 : JLabel&lt;br&gt;&lt;p style=&quot;margin:0px;margin-left:4px;&quot;&gt;- jLabel7 : JLabel&lt;br&gt;&lt;/p&gt;&lt;p style=&quot;margin:0px;margin-left:4px;&quot;&gt;- Jpanel1 : JPanale&lt;/p&gt;&amp;nbsp;- Jpanel2 : JPanale&lt;br&gt;&amp;nbsp;- Jpanel3 : JPanale&lt;br&gt;&lt;hr size=&quot;1&quot;&gt;&lt;p style=&quot;margin:0px;margin-left:4px;&quot;&gt;+ Login(): Contructor&lt;/p&gt;&lt;p style=&quot;margin:0px;margin-left:4px;&quot;&gt;- IngresarActionPerformed() : void&lt;/p&gt;&lt;p style=&quot;margin:0px;margin-left:4px;&quot;&gt;+ main(String args[]) : Inicializador&lt;/p&gt;" style="verticalAlign=top;align=left;overflow=fill;fontSize=12;fontFamily=Helvetica;html=1;whiteSpace=wrap;" parent="1" vertex="1">
          <mxGeometry x="864" y="246" width="222" height="301" as="geometry" />
        </mxCell>
        <mxCell id="Xy0KWZWRTUFIR0xxrU-q-23" value="&lt;p style=&quot;margin:0px;margin-top:4px;text-align:center;&quot;&gt;&lt;b&gt;Class JFrame Menu_Principal&lt;/b&gt;&lt;/p&gt;&lt;hr size=&quot;1&quot;&gt;&lt;p style=&quot;border-color: var(--border-color); margin: 0px 0px 0px 4px;&quot;&gt;+ CalculoAli : Jbutton&lt;/p&gt;&lt;div&gt;&lt;p style=&quot;border-color: var(--border-color); margin: 0px 0px 0px 4px;&quot;&gt;+ CalculoForra : Jbutton&lt;/p&gt;&lt;/div&gt;&lt;div&gt;&amp;nbsp;+ CalculoVen : Jbutton&lt;/div&gt;&lt;div&gt;&lt;span style=&quot;background-color: initial;&quot;&gt;&amp;nbsp;&lt;/span&gt;+ Salir : Jbutton&lt;/div&gt;&lt;p style=&quot;margin:0px;margin-left:4px;&quot;&gt;- jLabel1 : JLabel&lt;/p&gt;&amp;nbsp;- jLabel2 : JLabel&lt;br&gt;&amp;nbsp;- jLabel3 : JLabel&lt;br&gt;&amp;nbsp;- jLabel4 : JLabel&lt;br&gt;&amp;nbsp;- jLabel5 : JLabel&lt;br&gt;&amp;nbsp;- jLabel6 : JLabel&lt;br&gt;&lt;p style=&quot;margin:0px;margin-left:4px;&quot;&gt;- jLabel7 : JLabel&lt;br&gt;&lt;/p&gt;&lt;p style=&quot;margin:0px;margin-left:4px;&quot;&gt;- Jpanel1 : JPanale&lt;/p&gt;&amp;nbsp;- Jpanel2 : JPanale&lt;br&gt;&amp;nbsp;- Jpanel3 : JPanale&lt;br&gt;&lt;hr size=&quot;1&quot;&gt;&lt;p style=&quot;margin:0px;margin-left:4px;&quot;&gt;+ Menu_Principal(): Contructor&lt;/p&gt;&lt;p style=&quot;margin:0px;margin-left:4px;&quot;&gt;- CpacitacionActionPerformed() : void&lt;/p&gt;&lt;p style=&quot;border-color: var(--border-color); margin: 0px 0px 0px 4px;&quot;&gt;- CalculoAliActionPerformed() : void&lt;/p&gt;&lt;div&gt;&amp;nbsp;- CalculoVenActionPerformed() : void&lt;/div&gt;&lt;div&gt;&lt;span style=&quot;background-color: initial;&quot;&gt;&amp;nbsp;&lt;/span&gt;- CalculoForraActionPerformed() : void&lt;/div&gt;&lt;div&gt;&lt;span style=&quot;background-color: initial;&quot;&gt;&amp;nbsp;&lt;/span&gt;- SalirActionPerformed() : void&lt;/div&gt;&lt;p style=&quot;margin:0px;margin-left:4px;&quot;&gt;+ main(String args[]) : Inicializador&lt;/p&gt;" style="verticalAlign=top;align=left;overflow=fill;fontSize=12;fontFamily=Helvetica;html=1;whiteSpace=wrap;" parent="1" vertex="1">
          <mxGeometry x="1109" y="246" width="232" height="358" as="geometry" />
        </mxCell>
        <mxCell id="Xy0KWZWRTUFIR0xxrU-q-24" value="&lt;p style=&quot;margin:0px;margin-top:4px;text-align:center;&quot;&gt;&lt;b&gt;Class JFrame Capacitacion&lt;/b&gt;&lt;/p&gt;&lt;hr size=&quot;1&quot;&gt;&lt;p style=&quot;border-color: var(--border-color); margin: 0px 0px 0px 4px;&quot;&gt;+ manual : Jbutton&lt;/p&gt;&lt;div&gt;&lt;p style=&quot;border-color: var(--border-color); margin: 0px 0px 0px 4px;&quot;&gt;+ regresar : Jbutton&lt;/p&gt;&lt;/div&gt;&lt;p style=&quot;margin:0px;margin-left:4px;&quot;&gt;- jLabel1 : JLabel&lt;/p&gt;&amp;nbsp;- jLabel2 : JLabel&lt;br&gt;&amp;nbsp;- jLabel3 : JLabel&lt;br&gt;&amp;nbsp;- jLabel4 : JLabel&lt;br&gt;&amp;nbsp;- jLabel5 : JLabel&lt;br&gt;&lt;p style=&quot;margin:0px;margin-left:4px;&quot;&gt;- Jpanel1 : JPanale&lt;/p&gt;&amp;nbsp;- Jpanel2 : JPanale&lt;br&gt;&amp;nbsp;- Jpanel3 : JPanale&lt;br&gt;&lt;hr size=&quot;1&quot;&gt;&lt;p style=&quot;margin:0px;margin-left:4px;&quot;&gt;+ Capacitacion(): Contructor&lt;/p&gt;&lt;div&gt;&lt;span style=&quot;background-color: initial;&quot;&gt;&amp;nbsp;&lt;/span&gt;- manualActionPerformed() : void&lt;/div&gt;&lt;div&gt;&lt;span style=&quot;background-color: initial;&quot;&gt;&amp;nbsp;&lt;/span&gt;- regresarActionPerformed() : void&lt;/div&gt;&lt;p style=&quot;margin:0px;margin-left:4px;&quot;&gt;+ main(String args[]) : Inicializador&lt;/p&gt;" style="verticalAlign=top;align=left;overflow=fill;fontSize=12;fontFamily=Helvetica;html=1;whiteSpace=wrap;" parent="1" vertex="1">
          <mxGeometry x="1364" y="246" width="232" height="254" as="geometry" />
        </mxCell>
        <mxCell id="Xy0KWZWRTUFIR0xxrU-q-25" value="&lt;p style=&quot;margin:0px;margin-top:4px;text-align:center;&quot;&gt;&lt;b&gt;Class JFrame Calculo_Alimento&lt;/b&gt;&lt;/p&gt;&lt;hr size=&quot;1&quot;&gt;&lt;p style=&quot;border-color: var(--border-color); margin: 0px 0px 0px 4px;&quot;&gt;+ calcular : Jbutton&lt;/p&gt;&lt;div&gt;&lt;p style=&quot;border-color: var(--border-color); margin: 0px 0px 0px 4px;&quot;&gt;+ limpiar : Jbutton&lt;/p&gt;&lt;/div&gt;&lt;div&gt;&amp;nbsp;+ regresar : Jbutton&lt;/div&gt;&lt;div&gt;&amp;nbsp;+ Cant_Adulto : JTextField&lt;span style=&quot;background-color: initial;&quot;&gt;&amp;nbsp;&lt;/span&gt;&lt;/div&gt;&amp;nbsp;+ Cant_Saco : JTextField&lt;br&gt;&amp;nbsp;+ Cant_Ternero : JTextField&lt;br&gt;&amp;nbsp;+ Peso_Adulto : JTextField&lt;br&gt;&amp;nbsp;+ Peso_Saco : JTextField&lt;br&gt;&amp;nbsp;+ Cant_Ternero : JTextField&lt;br&gt;&amp;nbsp;+ Text_Mensaje : JTextArea&lt;br&gt;&lt;p style=&quot;margin:0px;margin-left:4px;&quot;&gt;- jLabel1 : JLabel&lt;/p&gt;&amp;nbsp;- jLabel2 : JLabel&lt;br&gt;&amp;nbsp;- jLabel3 : JLabel&lt;br&gt;&amp;nbsp;- jLabel4 : JLabel&lt;br&gt;&amp;nbsp;- jLabel5 : JLabel&lt;br&gt;&amp;nbsp;- jLabel6 : JLabel&lt;br&gt;&lt;p style=&quot;margin:0px;margin-left:4px;&quot;&gt;- jLabel7 : JLabel&lt;br&gt;&lt;/p&gt;&lt;p style=&quot;border-color: var(--border-color); margin: 0px 0px 0px 4px;&quot;&gt;- jLabel8 : JLabel&lt;/p&gt;&lt;div&gt;&lt;p style=&quot;border-color: var(--border-color); margin: 0px 0px 0px 4px;&quot;&gt;- jLabel9 : JLabel&lt;br style=&quot;border-color: var(--border-color);&quot;&gt;&lt;/p&gt;&lt;/div&gt;&lt;div&gt;&lt;p style=&quot;border-color: var(--border-color); margin: 0px 0px 0px 4px;&quot;&gt;- jLabel10 : JLabel&lt;br style=&quot;border-color: var(--border-color);&quot;&gt;&lt;/p&gt;&lt;/div&gt;&lt;div&gt;&lt;p style=&quot;border-color: var(--border-color); margin: 0px 0px 0px 4px;&quot;&gt;- jLabel11 : JLabel&lt;/p&gt;&lt;p style=&quot;border-color: var(--border-color); margin: 0px 0px 0px 4px;&quot;&gt;&amp;nbsp;- jLabel12: JLabel&lt;/p&gt;&lt;/div&gt;&lt;p style=&quot;margin:0px;margin-left:4px;&quot;&gt;- Jpanel1 : JPanale&lt;/p&gt;&amp;nbsp;- Jpanel2 : JPanale&lt;br&gt;&amp;nbsp;- Jpanel3 : JPanale&lt;br&gt;&lt;hr size=&quot;1&quot;&gt;&lt;p style=&quot;margin:0px;margin-left:4px;&quot;&gt;+ Calulo_Alimento(): Contructor&lt;/p&gt;&lt;p style=&quot;border-color: var(--border-color); margin: 0px 0px 0px 4px;&quot;&gt;- CalcularActionPerformed() : void&lt;/p&gt;&lt;div&gt;&amp;nbsp;- LimpiarActionPerformed() : void&lt;/div&gt;&lt;div&gt;&lt;span style=&quot;background-color: initial;&quot;&gt;&amp;nbsp;&lt;/span&gt;- RegresarActionPerformed() : void&lt;/div&gt;&lt;p style=&quot;margin:0px;margin-left:4px;&quot;&gt;+ main(String args[]) : Inicializador&lt;/p&gt;" style="verticalAlign=top;align=left;overflow=fill;fontSize=12;fontFamily=Helvetica;html=1;whiteSpace=wrap;" parent="1" vertex="1">
          <mxGeometry x="859" y="600" width="232" height="483" as="geometry" />
        </mxCell>
        <mxCell id="Xy0KWZWRTUFIR0xxrU-q-26" value="&lt;p style=&quot;margin:0px;margin-top:4px;text-align:center;&quot;&gt;&lt;b&gt;Class JFrame Calculo_Forraje&lt;/b&gt;&lt;/p&gt;&lt;hr size=&quot;1&quot;&gt;&lt;p style=&quot;border-color: var(--border-color); margin: 0px 0px 0px 4px;&quot;&gt;+ calcular : Jbutton&lt;/p&gt;&lt;div&gt;&lt;p style=&quot;border-color: var(--border-color); margin: 0px 0px 0px 4px;&quot;&gt;+ limpiar : Jbutton&lt;/p&gt;&lt;/div&gt;&lt;div&gt;&amp;nbsp;+ regresar : Jbutton&lt;/div&gt;&lt;div&gt;&amp;nbsp;+ CantTernero : JTextField&lt;span style=&quot;background-color: initial;&quot;&gt;&amp;nbsp;&lt;/span&gt;&lt;/div&gt;&amp;nbsp;+ CantiAdulto : JTextField&lt;br&gt;&amp;nbsp;+ Hectaria : JTextField&lt;br&gt;&amp;nbsp;+ Peso1 : JTextField&lt;br&gt;&amp;nbsp;+ Peso2 : JTextField&lt;br&gt;&amp;nbsp;+ PesoAdulto : JTextField&lt;br&gt;&amp;nbsp;+ PesoTernero : JTextField&lt;br&gt;&amp;nbsp;+ TextSalida : JTextArea&lt;br&gt;&lt;p style=&quot;margin:0px;margin-left:4px;&quot;&gt;- jLabel1 : JLabel&lt;/p&gt;&amp;nbsp;- jLabel2 : JLabel&lt;br&gt;&amp;nbsp;- jLabel3 : JLabel&lt;br&gt;&amp;nbsp;- jLabel4 : JLabel&lt;br&gt;&amp;nbsp;- jLabel5 : JLabel&lt;br&gt;&amp;nbsp;- jLabel6 : JLabel&lt;br&gt;&lt;p style=&quot;margin:0px;margin-left:4px;&quot;&gt;- jLabel7 : JLabel&lt;br&gt;&lt;/p&gt;&lt;p style=&quot;border-color: var(--border-color); margin: 0px 0px 0px 4px;&quot;&gt;- jLabel8 : JLabel&lt;/p&gt;&lt;div&gt;&lt;p style=&quot;border-color: var(--border-color); margin: 0px 0px 0px 4px;&quot;&gt;- jLabel9 : JLabel&lt;br style=&quot;border-color: var(--border-color);&quot;&gt;&lt;/p&gt;&lt;/div&gt;&lt;div&gt;&lt;p style=&quot;border-color: var(--border-color); margin: 0px 0px 0px 4px;&quot;&gt;- jLabel10 : JLabel&lt;br style=&quot;border-color: var(--border-color);&quot;&gt;&lt;/p&gt;&lt;/div&gt;&lt;div&gt;&lt;p style=&quot;border-color: var(--border-color); margin: 0px 0px 0px 4px;&quot;&gt;- jLabel11 : JLabel&lt;/p&gt;&lt;p style=&quot;border-color: var(--border-color); margin: 0px 0px 0px 4px;&quot;&gt;&lt;span style=&quot;background-color: initial;&quot;&gt;- jLabel12: JLabel&lt;/span&gt;&lt;/p&gt;&lt;p style=&quot;border-color: var(--border-color); margin: 0px 0px 0px 4px;&quot;&gt;- jLabel13: JLabel&lt;br&gt;&lt;/p&gt;&lt;p style=&quot;border-color: var(--border-color); margin: 0px 0px 0px 4px;&quot;&gt;- jLabel14: JLabel&lt;br&gt;&lt;/p&gt;&lt;p style=&quot;border-color: var(--border-color); margin: 0px 0px 0px 4px;&quot;&gt;- jLabel15: JLabel&lt;br&gt;&lt;/p&gt;&lt;/div&gt;&lt;p style=&quot;margin:0px;margin-left:4px;&quot;&gt;- Jpanel1 : JPanale&lt;/p&gt;&amp;nbsp;- Jpanel2 : JPanale&lt;br&gt;&amp;nbsp;- Jpanel3 : JPanale&lt;br&gt;&amp;nbsp;- Jpanel4 : JPanale&lt;br&gt;&lt;hr size=&quot;1&quot;&gt;&lt;p style=&quot;margin:0px;margin-left:4px;&quot;&gt;+ Calulo_Forraje(): Contructor&lt;/p&gt;&lt;p style=&quot;border-color: var(--border-color); margin: 0px 0px 0px 4px;&quot;&gt;- CalcularActionPerformed() : void&lt;/p&gt;&lt;div&gt;&amp;nbsp;- LimpiarActionPerformed() : void&lt;/div&gt;&lt;div&gt;&lt;span style=&quot;background-color: initial;&quot;&gt;&amp;nbsp;&lt;/span&gt;- RegresarActionPerformed() : void&lt;/div&gt;&lt;p style=&quot;margin:0px;margin-left:4px;&quot;&gt;+ main(String args[]) : Inicializador&lt;/p&gt;" style="verticalAlign=top;align=left;overflow=fill;fontSize=12;fontFamily=Helvetica;html=1;whiteSpace=wrap;" parent="1" vertex="1">
          <mxGeometry x="1116" y="645" width="232" height="558" as="geometry" />
        </mxCell>
        <mxCell id="Xy0KWZWRTUFIR0xxrU-q-27" value="&lt;p style=&quot;margin:0px;margin-top:4px;text-align:center;&quot;&gt;&lt;b&gt;Class JFrame Calculo_Ventas&lt;/b&gt;&lt;/p&gt;&lt;hr size=&quot;1&quot;&gt;&amp;nbsp;+registrar : Jbutton&lt;p style=&quot;border-color: var(--border-color); margin: 0px 0px 0px 4px;&quot;&gt;+ calcular : Jbutton&lt;/p&gt;&lt;div&gt;&lt;p style=&quot;border-color: var(--border-color); margin: 0px 0px 0px 4px;&quot;&gt;+ limpiar : Jbutton&lt;/p&gt;&lt;/div&gt;&lt;div&gt;&amp;nbsp;+ regresar : Jbutton&lt;/div&gt;&lt;div&gt;&amp;nbsp;+ CantSacrificado : JTextField&lt;span style=&quot;background-color: initial;&quot;&gt;&amp;nbsp;&lt;/span&gt;&lt;/div&gt;&amp;nbsp;+ PesoIngresado: JTextField&lt;br&gt;&amp;nbsp;+ PrecioKilo : JTextField&lt;br&gt;&amp;nbsp;+ TextSlidad : JTextArea&lt;br&gt;&amp;nbsp;+ TextPesos : JTextArea&lt;br&gt;&lt;p style=&quot;margin:0px;margin-left:4px;&quot;&gt;- jLabel1 : JLabel&lt;/p&gt;&amp;nbsp;- jLabel2 : JLabel&lt;br&gt;&amp;nbsp;- jLabel3 : JLabel&lt;br&gt;&amp;nbsp;- jLabel4 : JLabel&lt;br&gt;&amp;nbsp;- jLabel5 : JLabel&lt;br&gt;&amp;nbsp;- jLabel6 : JLabel&lt;br&gt;&lt;p style=&quot;margin:0px;margin-left:4px;&quot;&gt;- jLabel7 : JLabel&lt;br&gt;&lt;/p&gt;&lt;p style=&quot;border-color: var(--border-color); margin: 0px 0px 0px 4px;&quot;&gt;- jLabel8 : JLabel&lt;/p&gt;&lt;p style=&quot;margin:0px;margin-left:4px;&quot;&gt;- Jpanel1 : JPanale&lt;/p&gt;&amp;nbsp;- Jpanel2 : JPanale&lt;br&gt;&amp;nbsp;- Jpanel3 : JPanale&lt;br&gt;&amp;nbsp;- PanelGrafica : JPanale&lt;br&gt;&lt;hr size=&quot;1&quot;&gt;&lt;p style=&quot;margin:0px;margin-left:4px;&quot;&gt;+ Calulo_Ventas(): Contructor&lt;/p&gt;&lt;p style=&quot;margin:0px;margin-left:4px;&quot;&gt;- registrarActionPerformed() : void&lt;br&gt;&lt;/p&gt;&lt;p style=&quot;border-color: var(--border-color); margin: 0px 0px 0px 4px;&quot;&gt;- calcularActionPerformed() : void&lt;/p&gt;&lt;div&gt;&amp;nbsp;- limpiarActionPerformed() : void&lt;/div&gt;&lt;div&gt;&lt;span style=&quot;background-color: initial;&quot;&gt;&amp;nbsp;&lt;/span&gt;- regresarActionPerformed() : void&lt;/div&gt;&lt;div&gt;&amp;nbsp;- generarActionPerformed() : void&lt;br&gt;&lt;/div&gt;&lt;p style=&quot;margin:0px;margin-left:4px;&quot;&gt;+ main(String args[]) : Inicializador&lt;/p&gt;" style="verticalAlign=top;align=left;overflow=fill;fontSize=12;fontFamily=Helvetica;html=1;whiteSpace=wrap;" parent="1" vertex="1">
          <mxGeometry x="1366" y="547" width="232" height="483" as="geometry" />
        </mxCell>
        <mxCell id="Xy0KWZWRTUFIR0xxrU-q-28" value="Use" style="endArrow=open;endSize=12;dashed=1;html=1;rounded=0;exitX=0;exitY=0.455;exitDx=0;exitDy=0;exitPerimeter=0;entryX=1.001;entryY=0.69;entryDx=0;entryDy=0;entryPerimeter=0;" parent="1" source="Xy0KWZWRTUFIR0xxrU-q-20" target="Xy0KWZWRTUFIR0xxrU-q-3" edge="1">
          <mxGeometry width="160" relative="1" as="geometry">
            <mxPoint x="644" y="12" as="sourcePoint" />
            <mxPoint x="804" y="12" as="targetPoint" />
          </mxGeometry>
        </mxCell>
        <mxCell id="Xy0KWZWRTUFIR0xxrU-q-29" value="&lt;font style=&quot;font-size: 40px;&quot;&gt;Imagen&lt;/font&gt;" style="shape=folder;fontStyle=1;spacingTop=10;tabWidth=40;tabHeight=14;tabPosition=left;html=1;whiteSpace=wrap;" parent="1" vertex="1">
          <mxGeometry x="1091" y="1360" width="201" height="120" as="geometry" />
        </mxCell>
        <mxCell id="Xy0KWZWRTUFIR0xxrU-q-30" value="Use" style="endArrow=open;endSize=12;dashed=1;html=1;rounded=0;exitX=0;exitY=0;exitDx=120.5;exitDy=14;exitPerimeter=0;" parent="1" source="Xy0KWZWRTUFIR0xxrU-q-29" target="Xy0KWZWRTUFIR0xxrU-q-20" edge="1">
          <mxGeometry width="160" relative="1" as="geometry">
            <mxPoint x="1133" y="1569" as="sourcePoint" />
            <mxPoint x="1293" y="1569" as="targetPoint" />
          </mxGeometry>
        </mxCell>
      </root>
    </mxGraphModel>
  </diagram>
</mxfile>
